# xmcd
#
# Track frame offsets:
#	150
#	13990
#	27155
#	42525
#	54615
#	68873
#	81860
#	94045
#	107980
#	121243
#	131285
#	143243
#	156045
#	171460
#	184208
#
# Disc length: 2609 seconds
#
# Revision: 2
# Processed by: cddbd v1.4b41PL1 Copyright (c) Steve Scherf et al.
# Submitted via: EZCDDA 4.3.2
#
DISCID=d30a2f0f
DTITLE=Luis Arcaraz - 15 Grandes Éxitos de Luis Arcaraz y su Orquesta
DYEAR=1900
DGENRE=
TTITLE0=María Elena
TTITLE1=Candilejas
TTITLE2=Homenaje a Glenn Miller
TTITLE3=Continental
TTITLE4=Celos
TTITLE5=La vida en rosa
TTITLE6=Canción de septiembre
TTITLE7=Por ti
TTITLE8=El tercer hombre
TTITLE9=Delicado
TTITLE10=Mil violines
TTITLE11=Un extraño en el Paraíso
TTITLE12=Todo lo que tú eres
TTITLE13=Blues en la noche
TTITLE14=Rueda de la fortuna
EXTD=
EXTT0=
EXTT1=
EXTT2=
EXTT3=
EXTT4=
EXTT5=
EXTT6=
EXTT7=
EXTT8=
EXTT9=
EXTT10=
EXTT11=
EXTT12=
EXTT13=
EXTT14=
PLAYORDER=
